<svg width="334" height="277" viewBox="0 0 334 277" fill="none" xmlns="http://www.w3.org/2000/svg">
<g clip-path="url(#clip0)">
<path d="M242.466 217.262H195.742L116.158 224.894L35.958 217.262V30.2767L115.825 36.0006L197.417 30.2767L277.236 41.0887L275.187 184.681L242.466 217.262Z" fill="url(#paint0_linear)"/>
<path d="M240.943 214.663H195.241L117.398 222.089L38.9526 214.663V32.7313L117.073 38.3005L196.88 32.7313L274.952 43.2513L272.948 182.963L240.943 214.663Z" fill="white"/>
<path d="M241.2 209.71H193.067L119.643 216.714L45.6509 209.71V38.106L119.336 43.3592L194.613 38.106L268.253 48.0288V182.86L241.2 209.71Z" fill="#754F41"/>
<path d="M334 261.229L164.972 168.858L207.906 28.0905L193.294 22.3727L172.488 90.5912L6.71687 0L0 15.7711L167.405 107.256L129.186 232.566L143.797 238.284L159.89 185.522L327.283 277L334 261.229Z" fill="white"/>
<path d="M237.792 214.379L238.359 178.957L272.948 180.334L237.792 214.379Z" fill="url(#paint1_linear)"/>
<path d="M45.6509 112.265L151.74 158.619L158.79 173.041L151.771 180.256L45.6509 130.591V112.265Z" fill="white"/>
<path d="M240.943 214.379L241.458 181.693L272.947 182.963L240.943 214.379Z" fill="white"/>
<path d="M189.791 186.894L234.056 43.421L251.665 45.7936L202.074 194.398L189.791 186.894Z" fill="white"/>
<path opacity="0.1" d="M119.336 216.714L193.022 209.71V38.106L119.336 43.3592" fill="black"/>
<path d="M186.822 100.56C186.822 114.422 161.388 153.676 161.388 153.676C161.388 153.676 135.955 114.422 135.955 100.56C135.953 97.2637 136.61 93.9991 137.888 90.953C139.166 87.907 141.039 85.1391 143.401 82.8076C145.763 80.4761 148.567 78.6266 151.653 77.3648C154.739 76.1029 158.047 75.4534 161.388 75.4534C164.729 75.4534 168.037 76.1029 171.123 77.3648C174.209 78.6266 177.013 80.4761 179.375 82.8076C181.737 85.1391 183.61 87.907 184.888 90.953C186.166 93.9991 186.823 97.2637 186.822 100.56Z" fill="#BE2821"/>
<path d="M161.388 106.397C165.635 106.397 169.077 103 169.077 98.8094C169.077 94.6187 165.635 91.2215 161.388 91.2215C157.141 91.2215 153.699 94.6187 153.699 98.8094C153.699 103 157.141 106.397 161.388 106.397Z" fill="white"/>
<path d="M229.483 112.265L268.253 122.083V140.408L220.791 123.689L229.483 112.265Z" fill="white"/>
<path d="M81.7225 147.472L71.9302 214.311L83.0436 216.62L97.6837 154.942L97.6664 146.2L81.7225 147.472Z" fill="white"/>
<path d="M81.3275 60.2155L70.3398 123.053L78.8474 127.585L99.1285 60.1961L81.3275 60.2155Z" fill="white"/>
<path d="M102.346 50.0948C103.638 50.0948 104.686 49.0611 104.686 47.786C104.686 46.5108 103.638 45.4771 102.346 45.4771C101.054 45.4771 100.006 46.5108 100.006 47.786C100.006 49.0611 101.054 50.0948 102.346 50.0948Z" fill="#FF5252"/>
<path d="M74.2698 169.577C75.562 169.577 76.6095 168.544 76.6095 167.269C76.6095 165.993 75.562 164.96 74.2698 164.96C72.9777 164.96 71.9302 165.993 71.9302 167.269C71.9302 168.544 72.9777 169.577 74.2698 169.577Z" fill="#FF5252"/>
<path d="M71.93 186.605C73.2222 186.605 74.2697 185.571 74.2697 184.296C74.2697 183.021 73.2222 181.987 71.93 181.987C70.6378 181.987 69.5903 183.021 69.5903 184.296C69.5903 185.571 70.6378 186.605 71.93 186.605Z" fill="#FF5252"/>
<path d="M96.7894 182.565C98.0815 182.565 99.129 181.531 99.129 180.256C99.129 178.981 98.0815 177.947 96.7894 177.947C95.4972 177.947 94.4497 178.981 94.4497 180.256C94.4497 181.531 95.4972 182.565 96.7894 182.565Z" fill="#FF5252"/>
<path d="M56.7225 113.299C58.0146 113.299 59.0621 112.266 59.0621 110.99C59.0621 109.715 58.0146 108.682 56.7225 108.682C55.4303 108.682 54.3828 109.715 54.3828 110.99C54.3828 112.266 55.4303 113.299 56.7225 113.299Z" fill="#FF5252"/>
<path d="M240.971 110.99C242.263 110.99 243.31 109.957 243.31 108.682C243.31 107.407 242.263 106.373 240.971 106.373C239.678 106.373 238.631 107.407 238.631 108.682C238.631 109.957 239.678 110.99 240.971 110.99Z" fill="#FF5252"/>
<path d="M220.791 191.223C222.083 191.223 223.131 190.189 223.131 188.914C223.131 187.639 222.083 186.605 220.791 186.605C219.499 186.605 218.452 187.639 218.452 188.914C218.452 190.189 219.499 191.223 220.791 191.223Z" fill="#FF5252"/>
</g>
<defs>
<linearGradient id="paint0_linear" x1="156.597" y1="224.894" x2="156.597" y2="30.2767" gradientUnits="userSpaceOnUse">
<stop stop-color="#808080" stop-opacity="0.25"/>
<stop offset="0.53514" stop-color="#808080" stop-opacity="0.12"/>
<stop offset="1" stop-color="#808080" stop-opacity="0.1"/>
</linearGradient>
<linearGradient id="paint1_linear" x1="255.37" y1="214.379" x2="255.37" y2="178.957" gradientUnits="userSpaceOnUse">
<stop stop-opacity="0.12"/>
<stop offset="0.55135" stop-opacity="0.09"/>
<stop offset="1" stop-opacity="0.02"/>
</linearGradient>
<clipPath id="clip0">
<rect width="334" height="277" fill="white"/>
</clipPath>
</defs>
</svg>
