<svg width="56" height="70" viewBox="0 0 56 70" fill="none" xmlns="http://www.w3.org/2000/svg">
<rect y="28.3391" width="55.8367" height="8.71972" fill="white"/>
<path d="M6.66211 45.6981L9.67725 55.096L12.6831 45.6981H16.9692V59.2059H13.7036V56.0516L14.019 49.5946L10.7534 59.2059H8.60107L5.32617 49.5853L5.6416 56.0516V59.2059H2.38525V45.6981H6.66211ZM27.4248 53.4818H22.3037V56.701H28.3525V59.2059H19.0474V45.6981H28.3711V48.2122H22.3037V51.0604H27.4248V53.4818ZM40.9604 59.2059H37.7227L32.9355 50.8006V59.2059H29.6792V45.6981H32.9355L37.7134 54.1033V45.6981H40.9604V59.2059ZM53.6147 45.6981V54.5394C53.6147 55.5413 53.4014 56.4103 52.9746 57.1463C52.5479 57.8761 51.9355 58.4328 51.1377 58.8162C50.3398 59.1997 49.3966 59.3914 48.3081 59.3914C46.6629 59.3914 45.3672 58.9647 44.4209 58.1112C43.4746 57.2576 42.9922 56.0887 42.9736 54.6043V45.6981H46.2485V54.6693C46.2856 56.1475 46.9722 56.8866 48.3081 56.8866C48.9823 56.8866 49.4925 56.701 49.8389 56.3299C50.1852 55.9588 50.3584 55.3558 50.3584 54.5208V45.6981H53.6147Z" fill="white"/>
<rect y="14.1695" width="55.8367" height="8.71972" fill="white"/>
<rect width="55.8367" height="8.71972" fill="white"/>
</svg>
