<svg width="960" height="326" viewBox="0 0 960 326" fill="none" xmlns="http://www.w3.org/2000/svg">
<rect width="960" height="326" fill="white"/>
<g filter="url(#filter0_d)">
<path d="M90.6562 165V119.5H104.719C109.469 119.5 113.073 120.562 115.531 122.688C118.01 124.792 119.25 127.885 119.25 131.969C119.25 134.281 118.74 136.271 117.719 137.938C116.698 139.604 115.302 140.823 113.531 141.594C115.573 142.177 117.146 143.354 118.25 145.125C119.354 146.875 119.906 149.042 119.906 151.625C119.906 156.042 118.688 159.375 116.25 161.625C113.833 163.875 110.323 165 105.719 165H90.6562ZM99.8438 145.219V157.375H105.719C107.365 157.375 108.615 156.865 109.469 155.844C110.323 154.823 110.75 153.375 110.75 151.5C110.75 147.417 109.271 145.323 106.312 145.219H99.8438ZM99.8438 138.531H104.625C108.229 138.531 110.031 136.667 110.031 132.938C110.031 130.875 109.615 129.396 108.781 128.5C107.948 127.604 106.594 127.156 104.719 127.156H99.8438V138.531ZM148.312 155.688H135.781L133.344 165H123.625L137.844 119.5H146.25L160.562 165H150.75L148.312 155.688ZM137.781 148.031H146.281L142.031 131.812L137.781 148.031ZM174.438 165H165.25V119.5H174.438V165ZM196.969 135.125L203.094 119.5H213.625L202.938 142.062L213.875 165H203.219L196.969 149.094L190.75 165H180.094L191.031 142.062L180.312 119.5H190.844L196.969 135.125ZM240.25 155.688H227.719L225.281 165H215.562L229.781 119.5H238.188L252.5 165H242.688L240.25 155.688ZM229.719 148.031H238.219L233.969 131.812L229.719 148.031ZM270.562 148.375H266V165H256.812V119.5H271.469C276.073 119.5 279.625 120.698 282.125 123.094C284.646 125.469 285.906 128.854 285.906 133.25C285.906 139.292 283.708 143.521 279.312 145.938L287.281 164.562V165H277.406L270.562 148.375ZM266 140.719H271.219C273.052 140.719 274.427 140.115 275.344 138.906C276.26 137.677 276.719 136.042 276.719 134C276.719 129.438 274.938 127.156 271.375 127.156H266V140.719ZM326.188 153.062C326.188 151.208 325.708 149.812 324.75 148.875C323.812 147.917 322.094 146.927 319.594 145.906C315.031 144.177 311.75 142.156 309.75 139.844C307.75 137.51 306.75 134.76 306.75 131.594C306.75 127.76 308.104 124.688 310.812 122.375C313.542 120.042 317 118.875 321.188 118.875C323.979 118.875 326.469 119.469 328.656 120.656C330.844 121.823 332.521 123.479 333.688 125.625C334.875 127.771 335.469 130.208 335.469 132.938H326.312C326.312 130.812 325.854 129.198 324.938 128.094C324.042 126.969 322.74 126.406 321.031 126.406C319.427 126.406 318.177 126.885 317.281 127.844C316.385 128.781 315.938 130.052 315.938 131.656C315.938 132.906 316.438 134.042 317.438 135.062C318.438 136.062 320.208 137.104 322.75 138.188C327.188 139.792 330.406 141.76 332.406 144.094C334.427 146.427 335.438 149.396 335.438 153C335.438 156.958 334.177 160.052 331.656 162.281C329.135 164.51 325.708 165.625 321.375 165.625C318.438 165.625 315.76 165.021 313.344 163.812C310.927 162.604 309.031 160.875 307.656 158.625C306.302 156.375 305.625 153.719 305.625 150.656H314.844C314.844 153.281 315.354 155.188 316.375 156.375C317.396 157.562 319.062 158.156 321.375 158.156C324.583 158.156 326.188 156.458 326.188 153.062ZM365.031 145.312H350.719V157.375H367.656V165H341.531V119.5H367.594V127.156H350.719V137.906H365.031V145.312ZM403.906 159.844C402.135 161.76 399.958 163.208 397.375 164.188C394.812 165.146 392 165.625 388.938 165.625C383.708 165.625 379.646 164.01 376.75 160.781C373.854 157.531 372.365 152.812 372.281 146.625V138.438C372.281 132.167 373.646 127.344 376.375 123.969C379.125 120.573 383.125 118.875 388.375 118.875C393.312 118.875 397.031 120.094 399.531 122.531C402.052 124.969 403.51 128.792 403.906 134H394.969C394.719 131.104 394.115 129.135 393.156 128.094C392.198 127.031 390.698 126.5 388.656 126.5C386.177 126.5 384.375 127.406 383.25 129.219C382.125 131.031 381.542 133.917 381.5 137.875V146.125C381.5 150.271 382.115 153.292 383.344 155.188C384.594 157.062 386.635 158 389.469 158C391.281 158 392.75 157.635 393.875 156.906L394.688 156.344V148H388.25V141.062H403.906V159.844ZM440 119.5V151C439.958 155.729 438.656 159.354 436.094 161.875C433.531 164.375 429.854 165.625 425.062 165.625C420.188 165.625 416.458 164.354 413.875 161.812C411.312 159.271 410.031 155.594 410.031 150.781V119.5H419.281V150.812C419.281 153.396 419.698 155.24 420.531 156.344C421.365 157.448 422.875 158 425.062 158C427.25 158 428.75 157.458 429.562 156.375C430.375 155.271 430.792 153.469 430.812 150.969V119.5H440ZM478.781 165H469.594L456.156 135.156V165H446.969V119.5H456.156L469.625 149.375V119.5H478.781V165ZM486.156 165V119.5H498.188C503.5 119.5 507.729 121.188 510.875 124.562C514.042 127.938 515.656 132.562 515.719 138.438V145.812C515.719 151.792 514.135 156.49 510.969 159.906C507.823 163.302 503.479 165 497.938 165H486.156ZM495.344 127.156V157.375H498.094C501.156 157.375 503.312 156.573 504.562 154.969C505.812 153.344 506.469 150.552 506.531 146.594V138.688C506.531 134.438 505.938 131.479 504.75 129.812C503.562 128.125 501.542 127.24 498.688 127.156H495.344ZM543.375 155.688H530.844L528.406 165H518.688L532.906 119.5H541.312L555.625 165H545.812L543.375 155.688ZM532.844 148.031H541.344L537.094 131.812L532.844 148.031ZM105.469 208.5L113.125 175.5H123.375L110.25 221H100.688L87.6562 175.5H97.8438L105.469 208.5ZM137.25 221H128.062V175.5H137.25V221ZM167.25 211.688H154.719L152.281 221H142.562L156.781 175.5H165.188L179.5 221H169.688L167.25 211.688ZM156.719 204.031H165.219L160.969 187.812L156.719 204.031ZM198.531 221V175.5H210.562C215.875 175.5 220.104 177.188 223.25 180.562C226.417 183.938 228.031 188.562 228.094 194.438V201.812C228.094 207.792 226.51 212.49 223.344 215.906C220.198 219.302 215.854 221 210.312 221H198.531ZM207.719 183.156V213.375H210.469C213.531 213.375 215.688 212.573 216.938 210.969C218.188 209.344 218.844 206.552 218.906 202.594V194.688C218.906 190.438 218.312 187.479 217.125 185.812C215.938 184.125 213.917 183.24 211.062 183.156H207.719ZM266.75 202.344C266.75 208.448 265.302 213.188 262.406 216.562C259.531 219.938 255.531 221.625 250.406 221.625C245.302 221.625 241.292 219.958 238.375 216.625C235.458 213.271 233.979 208.583 233.938 202.562V194.781C233.938 188.531 235.385 183.656 238.281 180.156C241.177 176.635 245.198 174.875 250.344 174.875C255.406 174.875 259.396 176.604 262.312 180.062C265.229 183.5 266.708 188.333 266.75 194.562V202.344ZM257.531 194.719C257.531 190.615 256.948 187.562 255.781 185.562C254.615 183.562 252.802 182.562 250.344 182.562C247.906 182.562 246.104 183.531 244.938 185.469C243.771 187.385 243.167 190.312 243.125 194.25V202.344C243.125 206.323 243.719 209.26 244.906 211.156C246.094 213.031 247.927 213.969 250.406 213.969C252.802 213.969 254.583 213.052 255.75 211.219C256.917 209.365 257.51 206.5 257.531 202.625V194.719ZM301.875 204.375H297.312V221H288.125V175.5H302.781C307.385 175.5 310.938 176.698 313.438 179.094C315.958 181.469 317.219 184.854 317.219 189.25C317.219 195.292 315.021 199.521 310.625 201.938L318.594 220.562V221H308.719L301.875 204.375ZM297.312 196.719H302.531C304.365 196.719 305.74 196.115 306.656 194.906C307.573 193.677 308.031 192.042 308.031 190C308.031 185.438 306.25 183.156 302.688 183.156H297.312V196.719ZM347.031 201.312H332.719V213.375H349.656V221H323.531V175.5H349.594V183.156H332.719V193.906H347.031V201.312ZM385.812 205.844C385.583 211.031 384.125 214.958 381.438 217.625C378.75 220.292 374.958 221.625 370.062 221.625C364.917 221.625 360.969 219.938 358.219 216.562C355.49 213.167 354.125 208.333 354.125 202.062V194.406C354.125 188.156 355.542 183.344 358.375 179.969C361.208 176.573 365.146 174.875 370.188 174.875C375.146 174.875 378.906 176.26 381.469 179.031C384.052 181.802 385.521 185.781 385.875 190.969H376.656C376.573 187.76 376.073 185.552 375.156 184.344C374.26 183.115 372.604 182.5 370.188 182.5C367.729 182.5 365.99 183.365 364.969 185.094C363.948 186.802 363.406 189.625 363.344 193.562V202.156C363.344 206.677 363.844 209.781 364.844 211.469C365.865 213.156 367.604 214 370.062 214C372.479 214 374.146 213.417 375.062 212.25C375.979 211.062 376.5 208.927 376.625 205.844H385.812ZM401.062 221H391.875V175.5H401.062V221ZM408.781 221V175.5H422.844C427.594 175.5 431.198 176.562 433.656 178.688C436.135 180.792 437.375 183.885 437.375 187.969C437.375 190.281 436.865 192.271 435.844 193.938C434.823 195.604 433.427 196.823 431.656 197.594C433.698 198.177 435.271 199.354 436.375 201.125C437.479 202.875 438.031 205.042 438.031 207.625C438.031 212.042 436.812 215.375 434.375 217.625C431.958 219.875 428.448 221 423.844 221H408.781ZM417.969 201.219V213.375H423.844C425.49 213.375 426.74 212.865 427.594 211.844C428.448 210.823 428.875 209.375 428.875 207.5C428.875 203.417 427.396 201.323 424.438 201.219H417.969ZM417.969 194.531H422.75C426.354 194.531 428.156 192.667 428.156 188.938C428.156 186.875 427.74 185.396 426.906 184.5C426.073 183.604 424.719 183.156 422.844 183.156H417.969V194.531ZM476.75 202.344C476.75 208.448 475.302 213.188 472.406 216.562C469.531 219.938 465.531 221.625 460.406 221.625C455.302 221.625 451.292 219.958 448.375 216.625C445.458 213.271 443.979 208.583 443.938 202.562V194.781C443.938 188.531 445.385 183.656 448.281 180.156C451.177 176.635 455.198 174.875 460.344 174.875C465.406 174.875 469.396 176.604 472.312 180.062C475.229 183.5 476.708 188.333 476.75 194.562V202.344ZM467.531 194.719C467.531 190.615 466.948 187.562 465.781 185.562C464.615 183.562 462.802 182.562 460.344 182.562C457.906 182.562 456.104 183.531 454.938 185.469C453.771 187.385 453.167 190.312 453.125 194.25V202.344C453.125 206.323 453.719 209.26 454.906 211.156C456.094 213.031 457.927 213.969 460.406 213.969C462.802 213.969 464.583 213.052 465.75 211.219C466.917 209.365 467.51 206.5 467.531 202.625V194.719Z" fill="#4A2417"/>
</g>
<path d="M774.51 32.5346L765.519 34.8532L654.745 63.4195L645.754 65.7382C641.39 66.8689 637.652 69.6846 635.362 73.5675C633.071 77.4504 632.414 82.0835 633.535 86.4502L672.523 237.637C673.653 242.001 676.469 245.738 680.352 248.029C684.235 250.32 688.868 250.977 693.235 249.856L693.258 249.85L821.967 216.659L821.991 216.653C826.355 215.522 830.092 212.706 832.383 208.823C834.674 204.94 835.331 200.307 834.21 195.941L795.222 44.7542C794.092 40.39 791.276 36.6525 787.393 34.3616C783.51 32.0708 778.877 31.4137 774.51 32.5346Z" fill="#F2F2F2"/>
<path d="M775.733 37.2747L765.084 40.021L657.626 67.7321L646.977 70.4783C643.869 71.2835 641.207 73.2886 639.576 76.0537C637.945 78.8189 637.477 82.1182 638.275 85.2279L677.263 236.414C678.068 239.522 680.073 242.184 682.838 243.815C685.603 245.446 688.903 245.914 692.012 245.116L692.036 245.11L820.745 211.918L820.769 211.912C823.876 211.107 826.538 209.102 828.169 206.337C829.801 203.572 830.269 200.273 829.47 197.163L790.482 45.9766C789.677 42.8688 787.672 40.2072 784.907 38.5758C782.142 36.9445 778.843 36.4765 775.733 37.2747V37.2747Z" fill="white"/>
<path d="M767.691 86.2328L702.58 103.024C701.853 103.211 701.081 103.102 700.434 102.72C699.787 102.339 699.319 101.716 699.131 100.989C698.944 100.261 699.053 99.4896 699.434 98.8427C699.816 98.1959 700.439 97.7271 701.166 97.5396L766.277 80.7488C767.004 80.562 767.776 80.6715 768.422 81.0531C769.068 81.4348 769.536 82.0575 769.724 82.7843C769.911 83.5111 769.803 84.2826 769.421 84.9292C769.04 85.5758 768.418 86.0447 767.691 86.2328V86.2328Z" fill="#F2F2F2"/>
<path d="M781.388 92.5703L704.966 112.278C704.239 112.466 703.467 112.356 702.82 111.975C702.173 111.593 701.705 110.97 701.517 110.243C701.33 109.516 701.439 108.744 701.82 108.097C702.202 107.45 702.825 106.981 703.552 106.794L779.974 87.0863C780.701 86.8988 781.473 87.0078 782.12 87.3894C782.767 87.771 783.236 88.394 783.423 89.1212C783.611 89.8484 783.502 90.6203 783.12 91.2672C782.738 91.914 782.115 92.3828 781.388 92.5703V92.5703Z" fill="#F2F2F2"/>
<path d="M778.386 127.706L713.275 144.496C712.915 144.589 712.54 144.61 712.172 144.558C711.804 144.506 711.45 144.382 711.129 144.193C710.809 144.004 710.529 143.754 710.306 143.457C710.082 143.16 709.919 142.822 709.826 142.461C709.733 142.101 709.712 141.727 709.764 141.358C709.816 140.99 709.94 140.636 710.129 140.316C710.318 139.995 710.569 139.715 710.866 139.492C711.163 139.268 711.501 139.105 711.861 139.012L776.972 122.222C777.332 122.129 777.707 122.108 778.075 122.16C778.444 122.212 778.798 122.336 779.118 122.525C779.439 122.714 779.718 122.964 779.942 123.261C780.166 123.558 780.328 123.896 780.421 124.256C780.514 124.617 780.535 124.991 780.483 125.36C780.431 125.728 780.307 126.082 780.118 126.402C779.929 126.723 779.679 127.003 779.382 127.226C779.085 127.45 778.747 127.613 778.386 127.706V127.706Z" fill="#F2F2F2"/>
<path d="M792.084 134.043L715.662 153.751C715.302 153.843 714.927 153.865 714.559 153.812C714.191 153.76 713.836 153.636 713.516 153.448C713.196 153.259 712.916 153.008 712.692 152.711C712.469 152.414 712.306 152.076 712.213 151.716C712.12 151.356 712.099 150.981 712.151 150.613C712.203 150.244 712.327 149.89 712.516 149.57C712.705 149.249 712.955 148.97 713.252 148.746C713.55 148.522 713.888 148.359 714.248 148.267L790.67 128.559C791.397 128.371 792.169 128.48 792.816 128.862C793.463 129.244 793.931 129.867 794.119 130.594C794.306 131.321 794.197 132.093 793.816 132.74C793.434 133.387 792.811 133.855 792.084 134.043Z" fill="#F2F2F2"/>
<path d="M789.082 169.178L723.971 185.969C723.243 186.156 722.472 186.047 721.826 185.665C721.179 185.284 720.711 184.661 720.523 183.934C720.336 183.207 720.445 182.435 720.826 181.789C721.207 181.142 721.83 180.673 722.556 180.485L787.667 163.694C788.395 163.507 789.167 163.616 789.813 163.998C790.46 164.379 790.929 165.002 791.116 165.729C791.304 166.457 791.195 167.229 790.813 167.875C790.432 168.522 789.809 168.991 789.082 169.178Z" fill="#F2F2F2"/>
<path d="M802.779 175.516L726.357 195.224C725.997 195.317 725.622 195.338 725.253 195.286C724.885 195.235 724.53 195.111 724.21 194.922C723.889 194.733 723.609 194.483 723.385 194.185C723.161 193.888 722.998 193.55 722.905 193.189C722.812 192.829 722.791 192.454 722.844 192.085C722.896 191.717 723.02 191.363 723.209 191.042C723.398 190.722 723.649 190.442 723.946 190.218C724.244 189.995 724.582 189.832 724.943 189.74L801.365 170.032C802.092 169.844 802.864 169.953 803.511 170.335C804.157 170.717 804.626 171.34 804.814 172.067C805.001 172.794 804.892 173.566 804.511 174.213C804.129 174.86 803.506 175.328 802.779 175.516V175.516Z" fill="#F2F2F2"/>
<path d="M691.465 120.24L668.423 126.182C668.074 126.272 667.704 126.219 667.394 126.036C667.084 125.853 666.86 125.555 666.769 125.207L661.48 104.696C661.39 104.347 661.443 103.977 661.626 103.667C661.809 103.357 662.107 103.132 662.456 103.042L685.498 97.0998C685.847 97.0103 686.217 97.0628 686.527 97.2457C686.837 97.4286 687.061 97.7271 687.152 98.0756L692.441 118.586C692.531 118.935 692.478 119.305 692.295 119.615C692.112 119.925 691.814 120.15 691.465 120.24V120.24Z" fill="#E6E6E6"/>
<path d="M702.16 161.713L679.118 167.655C678.769 167.745 678.4 167.692 678.089 167.509C677.779 167.326 677.555 167.028 677.464 166.679L672.175 146.169C672.086 145.82 672.138 145.45 672.321 145.14C672.504 144.83 672.802 144.605 673.151 144.515L696.193 138.573C696.542 138.483 696.912 138.536 697.222 138.719C697.532 138.902 697.757 139.2 697.847 139.548L703.136 160.059C703.226 160.408 703.173 160.778 702.99 161.088C702.807 161.398 702.509 161.623 702.16 161.713V161.713Z" fill="#E6E6E6"/>
<path d="M712.855 203.186L689.813 209.128C689.464 209.217 689.094 209.165 688.784 208.982C688.474 208.799 688.249 208.501 688.159 208.152L682.869 187.641C682.78 187.293 682.832 186.923 683.015 186.613C683.198 186.303 683.497 186.078 683.845 185.988L706.887 180.045C707.236 179.956 707.606 180.008 707.916 180.191C708.226 180.374 708.451 180.673 708.541 181.021L713.83 201.532C713.92 201.881 713.867 202.251 713.685 202.561C713.502 202.871 713.203 203.095 712.855 203.186V203.186Z" fill="#E6E6E6"/>
<path d="M864.312 70.8584H731.343C726.835 70.8635 722.513 72.6567 719.325 75.8445C716.137 79.0324 714.344 83.3546 714.339 87.8629V243.995C714.344 248.504 716.137 252.826 719.325 256.014C722.513 259.202 726.835 260.995 731.343 261H864.312C868.82 260.995 873.142 259.202 876.33 256.014C879.518 252.826 881.311 248.504 881.316 243.995V87.8629C881.311 83.3546 879.518 79.0324 876.33 75.8445C873.142 72.6567 868.82 70.8635 864.312 70.8584V70.8584Z" fill="#E6E6E6"/>
<path d="M864.311 75.7537H731.343C728.132 75.7573 725.054 77.0342 722.784 79.3044C720.514 81.5745 719.237 84.6525 719.233 87.863V243.995C719.237 247.206 720.514 250.284 722.784 252.554C725.054 254.824 728.132 256.101 731.343 256.105H864.311C867.522 256.101 870.6 254.824 872.87 252.554C875.14 250.284 876.417 247.206 876.42 243.995V87.863C876.417 84.6525 875.14 81.5746 872.87 79.3044C870.6 77.0343 867.522 75.7573 864.311 75.7537V75.7537Z" fill="white"/>
<path d="M844.3 161.548H777.058C776.686 161.549 776.318 161.476 775.974 161.334C775.63 161.191 775.317 160.983 775.054 160.72C774.791 160.457 774.582 160.145 774.439 159.801C774.297 159.457 774.223 159.089 774.223 158.716C774.223 158.344 774.297 157.976 774.439 157.632C774.582 157.288 774.791 156.976 775.054 156.713C775.317 156.45 775.63 156.242 775.974 156.099C776.318 155.957 776.686 155.884 777.058 155.885H844.3C845.05 155.886 845.769 156.184 846.3 156.715C846.83 157.246 847.128 157.966 847.128 158.716C847.128 159.467 846.83 160.187 846.3 160.718C845.769 161.249 845.05 161.547 844.3 161.548V161.548Z" fill="#E6E6E6"/>
<path d="M855.98 171.105H777.058C776.686 171.105 776.318 171.033 775.974 170.89C775.63 170.748 775.317 170.54 775.054 170.277C774.791 170.014 774.582 169.702 774.439 169.358C774.297 169.014 774.223 168.645 774.223 168.273C774.223 167.901 774.297 167.533 774.439 167.189C774.582 166.845 774.791 166.533 775.054 166.27C775.317 166.007 775.63 165.798 775.974 165.656C776.318 165.514 776.686 165.441 777.058 165.442H855.98C856.731 165.442 857.452 165.74 857.983 166.271C858.514 166.802 858.812 167.522 858.812 168.273C858.812 169.024 858.514 169.745 857.983 170.276C857.452 170.807 856.731 171.105 855.98 171.105Z" fill="#E6E6E6"/>
<path d="M844.3 204.378H777.058C776.686 204.378 776.318 204.305 775.974 204.163C775.63 204.021 775.317 203.813 775.054 203.55C774.791 203.287 774.582 202.974 774.439 202.63C774.297 202.287 774.223 201.918 774.223 201.546C774.223 201.174 774.297 200.805 774.439 200.462C774.582 200.118 774.791 199.806 775.054 199.543C775.317 199.28 775.63 199.071 775.974 198.929C776.318 198.787 776.686 198.714 777.058 198.714H844.3C845.051 198.714 845.771 199.013 846.302 199.544C846.833 200.075 847.131 200.795 847.131 201.546C847.131 202.297 846.833 203.017 846.302 203.548C845.771 204.079 845.051 204.378 844.3 204.378V204.378Z" fill="#E6E6E6"/>
<path d="M855.98 213.935H777.058C776.686 213.935 776.318 213.862 775.974 213.72C775.63 213.578 775.317 213.369 775.054 213.106C774.791 212.843 774.582 212.531 774.439 212.187C774.297 211.844 774.223 211.475 774.223 211.103C774.223 210.731 774.297 210.362 774.439 210.019C774.582 209.675 774.791 209.363 775.054 209.1C775.317 208.837 775.63 208.628 775.974 208.486C776.318 208.344 776.686 208.271 777.058 208.271H855.98C856.352 208.271 856.721 208.344 857.065 208.486C857.409 208.628 857.721 208.837 857.985 209.1C858.248 209.363 858.457 209.675 858.599 210.019C858.742 210.362 858.815 210.731 858.815 211.103C858.815 211.475 858.742 211.844 858.599 212.187C858.457 212.531 858.248 212.843 857.985 213.106C857.721 213.369 857.409 213.578 857.065 213.72C856.721 213.862 856.352 213.935 855.98 213.935Z" fill="#E6E6E6"/>
<path d="M761.995 175.444H738.199C737.839 175.443 737.494 175.3 737.24 175.045C736.985 174.791 736.842 174.446 736.842 174.086V152.904C736.842 152.544 736.985 152.199 737.24 151.944C737.494 151.69 737.839 151.547 738.199 151.546H761.995C762.355 151.547 762.701 151.69 762.955 151.944C763.21 152.199 763.353 152.544 763.353 152.904V174.086C763.353 174.446 763.21 174.791 762.955 175.045C762.701 175.3 762.355 175.443 761.995 175.444V175.444Z" fill="#E6E6E6"/>
<path d="M761.995 218.273H738.199C737.839 218.273 737.494 218.13 737.24 217.875C736.985 217.62 736.842 217.275 736.842 216.915V195.734C736.842 195.374 736.985 195.028 737.24 194.774C737.494 194.519 737.839 194.376 738.199 194.376H761.995C762.355 194.376 762.701 194.519 762.955 194.774C763.21 195.028 763.353 195.374 763.353 195.734V216.915C763.353 217.275 763.21 217.62 762.955 217.875C762.701 218.13 762.355 218.273 761.995 218.273V218.273Z" fill="#E6E6E6"/>
<path d="M844.374 113.87H794.8C794.049 113.87 793.329 113.572 792.798 113.041C792.267 112.51 791.968 111.79 791.968 111.038C791.968 110.287 792.267 109.567 792.798 109.036C793.329 108.505 794.049 108.207 794.8 108.207H844.374C845.125 108.207 845.845 108.505 846.377 109.036C846.908 109.567 847.206 110.287 847.206 111.038C847.206 111.79 846.908 112.51 846.377 113.041C845.845 113.572 845.125 113.87 844.374 113.87Z" fill="#CCCCCC"/>
<path d="M856.055 123.427H794.8C794.428 123.427 794.06 123.354 793.716 123.212C793.373 123.069 793.061 122.861 792.798 122.598C792.535 122.335 792.326 122.023 792.184 121.679C792.042 121.336 791.968 120.967 791.968 120.596C791.968 120.224 792.042 119.856 792.184 119.512C792.326 119.168 792.535 118.856 792.798 118.593C793.061 118.33 793.373 118.122 793.716 117.979C794.06 117.837 794.428 117.764 794.8 117.764H856.055C856.806 117.764 857.526 118.062 858.057 118.593C858.588 119.124 858.887 119.845 858.887 120.596C858.887 121.347 858.588 122.067 858.057 122.598C857.526 123.129 856.806 123.427 856.055 123.427V123.427Z" fill="#CCCCCC"/>
<path d="M783.829 135.009H738.125C737.765 135.009 737.42 134.866 737.166 134.611C736.911 134.357 736.768 134.012 736.768 133.652V97.9828C736.768 97.6228 736.911 97.2777 737.166 97.0231C737.42 96.7686 737.765 96.6254 738.125 96.625H783.829C784.189 96.6254 784.534 96.7686 784.788 97.0231C785.043 97.2777 785.186 97.6228 785.186 97.9828V133.652C785.186 134.012 785.043 134.357 784.788 134.611C784.534 134.866 784.189 135.009 783.829 135.009V135.009Z" fill="#F55F44"/>
<path d="M879.922 251.92V245.411H876.417V251.92H873.619L875.894 255.861L878.169 259.802L880.444 255.861L882.72 251.92H879.922Z" fill="white"/>
<defs>
<filter id="filter0_d" x="86.6562" y="118.875" width="477.969" height="112.75" filterUnits="userSpaceOnUse" color-interpolation-filters="sRGB">
<feFlood flood-opacity="0" result="BackgroundImageFix"/>
<feColorMatrix in="SourceAlpha" type="matrix" values="0 0 0 0 0 0 0 0 0 0 0 0 0 0 0 0 0 0 127 0"/>
<feOffset dx="4" dy="5"/>
<feGaussianBlur stdDeviation="2.5"/>
<feColorMatrix type="matrix" values="0 0 0 0 1 0 0 0 0 0 0 0 0 0 0 0 0 0 0.25 0"/>
<feBlend mode="normal" in2="BackgroundImageFix" result="effect1_dropShadow"/>
<feBlend mode="normal" in="SourceGraphic" in2="effect1_dropShadow" result="shape"/>
</filter>
</defs>
</svg>
