<svg width="174" height="191" viewBox="0 0 174 191" fill="none" xmlns="http://www.w3.org/2000/svg">
<path d="M69.345 56.8472L4.23388 73.638C3.8738 73.7309 3.49895 73.7519 3.13074 73.6999C2.76253 73.6479 2.40817 73.5238 2.08789 73.3349C1.76761 73.1459 1.48769 72.8957 1.2641 72.5986C1.04051 72.3015 0.877632 71.9632 0.784774 71.6031C0.691915 71.243 0.670892 70.8682 0.7229 70.5C0.774908 70.1317 0.898929 69.7774 1.08789 69.4571C1.27684 69.1368 1.52704 68.8569 1.82418 68.6333C2.12132 68.4097 2.45959 68.2468 2.81967 68.154L67.9307 51.3631C68.2908 51.2703 68.6657 51.2493 69.0339 51.3013C69.4021 51.3533 69.7565 51.4773 70.0767 51.6663C70.397 51.8552 70.6769 52.1054 70.9005 52.4025C71.1241 52.6997 71.287 53.038 71.3799 53.398C71.4727 53.7581 71.4937 54.133 71.4417 54.5012C71.3897 54.8694 71.2657 55.2238 71.0767 55.544C70.8878 55.8643 70.6376 56.1442 70.3404 56.3678C70.0433 56.5914 69.705 56.7543 69.345 56.8472V56.8472Z" fill="#F2F2F2"/>
<path d="M83.0425 63.1846L6.62066 82.8923C6.26058 82.9851 5.88572 83.0062 5.51751 82.9542C5.1493 82.9022 4.79495 82.7781 4.47467 82.5892C4.15439 82.4002 3.87446 82.15 3.65087 81.8529C3.42728 81.5557 3.26441 81.2175 3.17155 80.8574C3.07869 80.4973 3.05767 80.1225 3.10968 79.7542C3.16169 79.386 3.28571 79.0317 3.47467 78.7114C3.66362 78.3911 3.91381 78.1112 4.21095 77.8876C4.50809 77.664 4.84636 77.5011 5.20644 77.4083L81.6283 57.7006C82.3555 57.5131 83.1274 57.6221 83.7743 58.0037C84.4211 58.3853 84.8899 59.0083 85.0774 59.7355C85.2649 60.4627 85.1559 61.2347 84.7743 61.8815C84.3927 62.5283 83.7697 62.9971 83.0425 63.1846Z" fill="#F2F2F2"/>
<path d="M80.0402 98.3199L14.9291 115.111C14.2021 115.298 13.4306 115.188 12.7842 114.807C12.1378 114.425 11.6693 113.802 11.4819 113.075C11.2944 112.349 11.4033 111.577 11.7845 110.93C12.1657 110.284 12.7881 109.815 13.5149 109.627L78.626 92.8359C79.3532 92.6484 80.1251 92.7574 80.772 93.139C81.4188 93.5207 81.8875 94.1436 82.0751 94.8708C82.2626 95.598 82.1536 96.37 81.772 97.0168C81.3903 97.6636 80.7674 98.1324 80.0402 98.3199Z" fill="#F2F2F2"/>
<path d="M93.7373 104.657L17.3155 124.365C16.9552 124.458 16.5802 124.48 16.2117 124.428C15.8433 124.376 15.4887 124.252 15.1681 124.063C14.8476 123.874 14.5674 123.624 14.3436 123.327C14.1198 123.03 13.9568 122.691 13.8639 122.331C13.771 121.97 13.75 121.595 13.8021 121.227C13.8542 120.859 13.9785 120.504 14.1677 120.184C14.3569 119.863 14.6074 119.583 14.9048 119.36C15.2023 119.136 15.5409 118.974 15.9012 118.881L92.3231 99.1734C93.0503 98.9859 93.8223 99.0949 94.4691 99.4765C95.1159 99.8581 95.5847 100.481 95.7722 101.208C95.9597 101.936 95.8507 102.707 95.4691 103.354C95.0875 104.001 94.4645 104.47 93.7373 104.657V104.657Z" fill="#F2F2F2"/>
<path d="M155.27 0H22.3017C17.7933 0.00507635 13.4711 1.79826 10.2833 4.98613C7.09539 8.174 5.30223 12.4962 5.29716 17.0045V173.137C5.30223 177.645 7.09539 181.968 10.2833 185.155C13.4711 188.343 17.7933 190.137 22.3017 190.142H155.27C159.778 190.137 164.101 188.343 167.288 185.155C170.476 181.968 172.27 177.645 172.275 173.137V17.0045C172.27 12.4962 170.476 8.174 167.288 4.98613C164.101 1.79826 159.778 0.00507635 155.27 0V0Z" fill="#E6E6E6"/>
<path d="M155.27 4.89526H22.3013C19.0909 4.89886 16.0129 6.17582 13.7427 8.44597C11.4726 10.7161 10.1956 13.7941 10.192 17.0046V173.137C10.1956 176.348 11.4726 179.426 13.7427 181.696C16.0129 183.966 19.0909 185.243 22.3013 185.246H155.27C158.48 185.243 161.558 183.966 163.828 181.696C166.099 179.425 167.376 176.348 167.379 173.137V17.0046C167.376 13.7941 166.099 10.7162 163.828 8.44602C161.558 6.17587 158.48 4.8989 155.27 4.89526V4.89526Z" fill="white"/>
<path d="M135.258 90.6897H68.0169C67.6447 90.6901 67.2762 90.6172 66.9322 90.4751C66.5883 90.333 66.2758 90.1244 66.0125 89.8615C65.7492 89.5985 65.5403 89.2862 65.3978 88.9424C65.2553 88.5986 65.182 88.2301 65.182 87.858C65.182 87.4859 65.2553 87.1174 65.3978 86.7736C65.5403 86.4299 65.7492 86.1176 66.0125 85.8546C66.2758 85.5916 66.5883 85.3831 66.9322 85.2409C67.2762 85.0988 67.6447 85.0259 68.0169 85.0263H135.258C136.009 85.0271 136.728 85.3259 137.258 85.8568C137.789 86.3878 138.087 87.1075 138.087 87.858C138.087 88.6085 137.789 89.3283 137.258 89.8592C136.728 90.3902 136.009 90.6889 135.258 90.6897Z" fill="#FFC2C2"/>
<path d="M146.939 100.247H68.0169C67.6447 100.247 67.2762 100.174 66.9322 100.032C66.5883 99.89 66.2758 99.6815 66.0125 99.4185C65.7492 99.1555 65.5403 98.8432 65.3978 98.4994C65.2553 98.1556 65.182 97.7872 65.182 97.415C65.182 97.0429 65.2553 96.6744 65.3978 96.3306C65.5403 95.9869 65.7492 95.6746 66.0125 95.4116C66.2758 95.1486 66.5883 94.9401 66.9322 94.798C67.2762 94.6558 67.6447 94.5829 68.0169 94.5833H146.939C147.69 94.5833 148.41 94.8816 148.941 95.4127C149.472 95.9437 149.771 96.664 149.771 97.415C149.771 98.166 149.472 98.8863 148.941 99.4173C148.41 99.9484 147.69 100.247 146.939 100.247Z" fill="#E6E6E6"/>
<path d="M135.258 133.519H68.0169C67.6447 133.52 67.2762 133.447 66.9322 133.305C66.5883 133.163 66.2758 132.954 66.0125 132.691C65.7492 132.428 65.5403 132.116 65.3978 131.772C65.2553 131.428 65.182 131.06 65.182 130.688C65.182 130.315 65.2553 129.947 65.3978 129.603C65.5403 129.259 65.7492 128.947 66.0125 128.684C66.2758 128.421 66.5883 128.213 66.9322 128.071C67.2762 127.928 67.6447 127.855 68.0169 127.856H135.258C136.009 127.856 136.729 128.154 137.26 128.685C137.791 129.216 138.09 129.937 138.09 130.688C138.09 131.439 137.791 132.159 137.26 132.69C136.729 133.221 136.009 133.519 135.258 133.519V133.519Z" fill="#FFC2C2"/>
<path d="M146.939 143.076H68.0169C67.6447 143.077 67.2762 143.004 66.9322 142.862C66.5883 142.72 66.2758 142.511 66.0125 142.248C65.7492 141.985 65.5403 141.673 65.3978 141.329C65.2553 140.985 65.182 140.617 65.182 140.245C65.182 139.872 65.2553 139.504 65.3978 139.16C65.5403 138.816 65.7492 138.504 66.0125 138.241C66.2758 137.978 66.5883 137.77 66.9322 137.628C67.2762 137.485 67.6447 137.412 68.0169 137.413H146.939C147.311 137.412 147.68 137.485 148.024 137.628C148.367 137.77 148.68 137.978 148.943 138.241C149.207 138.504 149.415 138.816 149.558 139.16C149.7 139.504 149.774 139.872 149.774 140.245C149.774 140.617 149.7 140.985 149.558 141.329C149.415 141.673 149.207 141.985 148.943 142.248C148.68 142.511 148.367 142.72 148.024 142.862C147.68 143.004 147.311 143.077 146.939 143.076Z" fill="#E6E6E6"/>
<path d="M52.9539 104.585H29.1578C28.7978 104.585 28.4527 104.442 28.1982 104.187C27.9436 103.933 27.8004 103.587 27.8 103.227V82.0456C27.8004 81.6856 27.9436 81.3405 28.1982 81.0859C28.4527 80.8314 28.7978 80.6882 29.1578 80.6878H52.9539C53.3139 80.6882 53.659 80.8314 53.9136 81.0859C54.1681 81.3405 54.3113 81.6856 54.3117 82.0456V103.227C54.3113 103.587 54.1681 103.933 53.9136 104.187C53.659 104.442 53.3139 104.585 52.9539 104.585V104.585Z" fill="#FFC2C2"/>
<path d="M52.9539 147.415H29.1578C28.7978 147.414 28.4527 147.271 28.1982 147.017C27.9436 146.762 27.8004 146.417 27.8 146.057V124.875C27.8004 124.515 27.9436 124.17 28.1982 123.915C28.4527 123.661 28.7978 123.518 29.1578 123.517H52.9539C53.3139 123.518 53.659 123.661 53.9136 123.915C54.1681 124.17 54.3113 124.515 54.3117 124.875V146.057C54.3113 146.417 54.1681 146.762 53.9136 147.017C53.659 147.271 53.3139 147.414 52.9539 147.415Z" fill="#FFC2C2"/>
<path d="M135.333 43.0119H85.7586C85.0076 43.0119 84.2873 42.7135 83.7563 42.1825C83.2252 41.6514 82.9269 40.9312 82.9269 40.1802C82.9269 39.4291 83.2252 38.7089 83.7563 38.1778C84.2873 37.6468 85.0076 37.3484 85.7586 37.3484H135.333C136.084 37.3484 136.804 37.6468 137.335 38.1778C137.866 38.7089 138.165 39.4291 138.165 40.1802C138.165 40.9312 137.866 41.6514 137.335 42.1825C136.804 42.7135 136.084 43.0119 135.333 43.0119Z" fill="#FFC2C2"/>
<path d="M147.014 52.5689H85.7586C85.3867 52.5689 85.0185 52.4957 84.6749 52.3534C84.3314 52.2111 84.0192 52.0025 83.7563 51.7395C83.4933 51.4766 83.2847 51.1644 83.1424 50.8209C83.0001 50.4773 82.9269 50.1091 82.9269 49.7372C82.9269 49.3654 83.0001 48.9971 83.1424 48.6536C83.2847 48.31 83.4933 47.9978 83.7563 47.7349C84.0192 47.472 84.3314 47.2634 84.6749 47.1211C85.0185 46.9788 85.3867 46.9055 85.7586 46.9055H147.014C147.765 46.9055 148.485 47.2039 149.016 47.7349C149.547 48.2659 149.845 48.9862 149.845 49.7372C149.845 50.4882 149.547 51.2085 149.016 51.7395C148.485 52.2706 147.765 52.5689 147.014 52.5689V52.5689Z" fill="#CCCCCC"/>
<path d="M74.7871 64.1508H29.084C28.724 64.1504 28.3789 64.0072 28.1243 63.7527C27.8697 63.4981 27.7266 63.153 27.7262 62.793V27.1243C27.7266 26.7643 27.8697 26.4192 28.1243 26.1646C28.3789 25.91 28.724 25.7669 29.084 25.7665H74.7871C75.1471 25.7669 75.4922 25.91 75.7468 26.1646C76.0013 26.4192 76.1445 26.7643 76.1449 27.1243V62.793C76.1445 63.153 76.0013 63.4981 75.7468 63.7527C75.4922 64.0072 75.1471 64.1504 74.7871 64.1508V64.1508Z" fill="#4A2417"/>
<path d="M170.88 181.062V174.553H167.375V181.062H164.577L166.852 185.003L169.128 188.944L171.403 185.003L173.678 181.062H170.88Z" fill="white"/>
</svg>
