<svg width="40" height="40" viewBox="0 0 40 40" fill="none" xmlns="http://www.w3.org/2000/svg">
<g clip-path="url(#clip0)">
<path d="M39.9899 40.0002V39.9985H39.9999V25.3285C39.9999 18.1519 38.4549 12.6235 30.0649 12.6235C26.0315 12.6235 23.3249 14.8369 22.2199 16.9352H22.1032V13.2935H14.1482V39.9985H22.4315V26.7752C22.4315 23.2935 23.0915 19.9269 27.4032 19.9269C31.6515 19.9269 31.7149 23.9002 31.7149 26.9985V40.0002H39.9899Z" fill="#240000"/>
<path d="M0.660156 13.2949H8.95349V39.9999H0.660156V13.2949Z" fill="#240000"/>
<path d="M4.80333 0C2.15167 0 0 2.15167 0 4.80333C0 7.455 2.15167 9.65167 4.80333 9.65167C7.455 9.65167 9.60667 7.455 9.60667 4.80333C9.605 2.15167 7.45333 0 4.80333 0V0Z" fill="#240000"/>
</g>
<defs>
<clipPath id="clip0">
<rect width="40" height="40" fill="white"/>
</clipPath>
</defs>
</svg>
